<mxfile modified="2023-03-15T22:08:28.661Z" host="Electron" agent="5.0 (Windows NT 10.0; Win64; x64) AppleWebKit/537.36 (KHTML, like Gecko) draw.io/20.3.0 Chrome/104.0.5112.114 Electron/20.1.3 Safari/537.36" etag="xs72KYXoaonjsZixHV7b" compressed="false" version="20.3.0" type="device">
  <diagram id="u7IJXCXgqJScr_g_SpUP" name="Functionality/System Information">
    <mxGraphModel dx="782" dy="517" grid="1" gridSize="10" guides="1" tooltips="1" connect="1" arrows="1" fold="1" page="1" pageScale="1" pageWidth="827" pageHeight="1169" math="0" shadow="0">
      <root>
        <mxCell id="vT9nq1w8mzguo1wPkax1-0" />
        <mxCell id="vT9nq1w8mzguo1wPkax1-1" parent="vT9nq1w8mzguo1wPkax1-0" />
        <mxCell id="vT9nq1w8mzguo1wPkax1-9" value="" style="endArrow=open;endFill=0;html=1;strokeColor=#000000;fontSize=11;entryX=0;entryY=1;entryDx=0;entryDy=0;exitX=1;exitY=0.75;exitDx=0;exitDy=0;rounded=0;" parent="vT9nq1w8mzguo1wPkax1-1" source="V3ARkuVoZXKVavODABEY-18" target="V3ARkuVoZXKVavODABEY-13" edge="1">
          <mxGeometry width="160" relative="1" as="geometry">
            <mxPoint x="160" y="460" as="sourcePoint" />
            <mxPoint x="240" y="460" as="targetPoint" />
          </mxGeometry>
        </mxCell>
        <mxCell id="V3ARkuVoZXKVavODABEY-0" value="" style="fontStyle=1;align=center;verticalAlign=top;childLayout=stackLayout;horizontal=1;horizontalStack=0;resizeParent=1;resizeParentMax=0;resizeLast=0;marginBottom=0;strokeColor=#82b366;strokeWidth=2;fillColor=none;" parent="vT9nq1w8mzguo1wPkax1-1" vertex="1">
          <mxGeometry x="360" y="160" width="120" height="63" as="geometry" />
        </mxCell>
        <mxCell id="V3ARkuVoZXKVavODABEY-1" value="Create System&amp;nbsp;&lt;br&gt;Information" style="html=1;align=left;spacingLeft=4;verticalAlign=middle;strokeColor=none;fillColor=none;fontStyle=1" parent="V3ARkuVoZXKVavODABEY-0" vertex="1">
          <mxGeometry width="120" height="30" as="geometry" />
        </mxCell>
        <mxCell id="V3ARkuVoZXKVavODABEY-2" value="" style="shape=ellipse;" parent="V3ARkuVoZXKVavODABEY-1" vertex="1">
          <mxGeometry x="1" width="10" height="16" relative="1" as="geometry">
            <mxPoint x="-25" y="7" as="offset" />
          </mxGeometry>
        </mxCell>
        <mxCell id="V3ARkuVoZXKVavODABEY-3" value="" style="line;strokeWidth=1;fillColor=none;align=left;verticalAlign=middle;spacingTop=-1;spacingLeft=3;spacingRight=3;rotatable=0;labelPosition=right;points=[];portConstraint=eastwest;" parent="V3ARkuVoZXKVavODABEY-0" vertex="1">
          <mxGeometry y="30" width="120" height="8" as="geometry" />
        </mxCell>
        <mxCell id="V3ARkuVoZXKVavODABEY-4" value="." style="html=1;align=center;spacingLeft=4;verticalAlign=top;strokeColor=none;fillColor=none;" parent="V3ARkuVoZXKVavODABEY-0" vertex="1">
          <mxGeometry y="38" width="120" height="25" as="geometry" />
        </mxCell>
        <mxCell id="V3ARkuVoZXKVavODABEY-7" value="" style="fontStyle=1;align=center;verticalAlign=top;childLayout=stackLayout;horizontal=1;horizontalStack=0;resizeParent=1;resizeParentMax=0;resizeLast=0;marginBottom=0;strokeColor=#82b366;strokeWidth=2;fillColor=none;" parent="vT9nq1w8mzguo1wPkax1-1" vertex="1">
          <mxGeometry x="360" y="258.5" width="120" height="63" as="geometry" />
        </mxCell>
        <mxCell id="V3ARkuVoZXKVavODABEY-8" value="Edit System &lt;br&gt;Information" style="html=1;align=left;spacingLeft=4;verticalAlign=middle;strokeColor=none;fillColor=none;fontStyle=1" parent="V3ARkuVoZXKVavODABEY-7" vertex="1">
          <mxGeometry width="120" height="30" as="geometry" />
        </mxCell>
        <mxCell id="V3ARkuVoZXKVavODABEY-9" value="" style="shape=ellipse;" parent="V3ARkuVoZXKVavODABEY-8" vertex="1">
          <mxGeometry x="1" width="10" height="16" relative="1" as="geometry">
            <mxPoint x="-25" y="7" as="offset" />
          </mxGeometry>
        </mxCell>
        <mxCell id="V3ARkuVoZXKVavODABEY-10" value="" style="line;strokeWidth=1;fillColor=none;align=left;verticalAlign=middle;spacingTop=-1;spacingLeft=3;spacingRight=3;rotatable=0;labelPosition=right;points=[];portConstraint=eastwest;" parent="V3ARkuVoZXKVavODABEY-7" vertex="1">
          <mxGeometry y="30" width="120" height="8" as="geometry" />
        </mxCell>
        <mxCell id="V3ARkuVoZXKVavODABEY-11" value="." style="html=1;align=center;spacingLeft=4;verticalAlign=top;strokeColor=none;fillColor=none;" parent="V3ARkuVoZXKVavODABEY-7" vertex="1">
          <mxGeometry y="38" width="120" height="25" as="geometry" />
        </mxCell>
        <mxCell id="V3ARkuVoZXKVavODABEY-12" value="" style="fontStyle=1;align=center;verticalAlign=top;childLayout=stackLayout;horizontal=1;horizontalStack=0;resizeParent=1;resizeParentMax=0;resizeLast=0;marginBottom=0;strokeColor=#82b366;strokeWidth=2;fillColor=none;" parent="vT9nq1w8mzguo1wPkax1-1" vertex="1">
          <mxGeometry x="360" y="361.5" width="120" height="63" as="geometry" />
        </mxCell>
        <mxCell id="V3ARkuVoZXKVavODABEY-13" value="View System &lt;br&gt;Information" style="html=1;align=left;spacingLeft=4;verticalAlign=middle;strokeColor=none;fillColor=none;fontStyle=1" parent="V3ARkuVoZXKVavODABEY-12" vertex="1">
          <mxGeometry width="120" height="30" as="geometry" />
        </mxCell>
        <mxCell id="V3ARkuVoZXKVavODABEY-14" value="" style="shape=ellipse;" parent="V3ARkuVoZXKVavODABEY-13" vertex="1">
          <mxGeometry x="1" width="20" height="16" relative="1" as="geometry">
            <mxPoint x="-25" y="7" as="offset" />
          </mxGeometry>
        </mxCell>
        <mxCell id="V3ARkuVoZXKVavODABEY-15" value="" style="line;strokeWidth=1;fillColor=none;align=left;verticalAlign=middle;spacingTop=-1;spacingLeft=3;spacingRight=3;rotatable=0;labelPosition=right;points=[];portConstraint=eastwest;" parent="V3ARkuVoZXKVavODABEY-12" vertex="1">
          <mxGeometry y="30" width="120" height="8" as="geometry" />
        </mxCell>
        <mxCell id="V3ARkuVoZXKVavODABEY-16" value="." style="html=1;align=center;spacingLeft=4;verticalAlign=top;strokeColor=none;fillColor=none;" parent="V3ARkuVoZXKVavODABEY-12" vertex="1">
          <mxGeometry y="38" width="120" height="25" as="geometry" />
        </mxCell>
        <mxCell id="V3ARkuVoZXKVavODABEY-20" style="edgeStyle=none;rounded=0;orthogonalLoop=1;jettySize=auto;html=1;entryX=0;entryY=1;entryDx=0;entryDy=0;endArrow=open;endFill=0;exitX=1;exitY=0.75;exitDx=0;exitDy=0;" parent="vT9nq1w8mzguo1wPkax1-1" source="V3ARkuVoZXKVavODABEY-17" target="V3ARkuVoZXKVavODABEY-8" edge="1">
          <mxGeometry relative="1" as="geometry" />
        </mxCell>
        <mxCell id="V3ARkuVoZXKVavODABEY-22" style="edgeStyle=none;rounded=0;orthogonalLoop=1;jettySize=auto;html=1;entryX=0;entryY=0.5;entryDx=0;entryDy=0;endArrow=open;endFill=0;exitX=1;exitY=0.25;exitDx=0;exitDy=0;" parent="vT9nq1w8mzguo1wPkax1-1" source="V3ARkuVoZXKVavODABEY-17" target="V3ARkuVoZXKVavODABEY-4" edge="1">
          <mxGeometry relative="1" as="geometry" />
        </mxCell>
        <mxCell id="uF9bsFPUIGZTQUCOUkFB-6" style="edgeStyle=none;rounded=0;orthogonalLoop=1;jettySize=auto;html=1;entryX=1;entryY=0.75;entryDx=0;entryDy=0;endArrow=block;endFill=0;" parent="vT9nq1w8mzguo1wPkax1-1" source="V3ARkuVoZXKVavODABEY-17" target="uF9bsFPUIGZTQUCOUkFB-4" edge="1">
          <mxGeometry relative="1" as="geometry" />
        </mxCell>
        <mxCell id="V3ARkuVoZXKVavODABEY-17" value="&lt;p style=&quot;line-height: 100%&quot;&gt;&amp;lt;&amp;lt;actor&amp;gt;&amp;gt;&lt;br&gt;&lt;br&gt;&lt;b&gt;Deployment&lt;br&gt;Pipeline&lt;br&gt;Daemon&lt;br&gt;&lt;/b&gt;&lt;/p&gt;" style="text;html=1;align=center;verticalAlign=middle;dashed=0;strokeColor=#000000;strokeWidth=2;" parent="vT9nq1w8mzguo1wPkax1-1" vertex="1">
          <mxGeometry x="240" y="258.5" width="80" height="60" as="geometry" />
        </mxCell>
        <mxCell id="V3ARkuVoZXKVavODABEY-18" value="&lt;p style=&quot;line-height: 100%&quot;&gt;&amp;lt;&amp;lt;actor&amp;gt;&amp;gt;&lt;br&gt;&lt;br&gt;&lt;b&gt;Unauthenticated&lt;br&gt;User&lt;/b&gt;&lt;/p&gt;" style="text;html=1;align=center;verticalAlign=middle;dashed=0;strokeColor=#000000;strokeWidth=2;" parent="vT9nq1w8mzguo1wPkax1-1" vertex="1">
          <mxGeometry x="120" y="364.5" width="80" height="60" as="geometry" />
        </mxCell>
        <mxCell id="V3ARkuVoZXKVavODABEY-24" value="x" style="edgeStyle=none;rounded=0;orthogonalLoop=1;jettySize=auto;html=1;endArrow=open;endFill=0;" parent="vT9nq1w8mzguo1wPkax1-1" source="V3ARkuVoZXKVavODABEY-23" edge="1">
          <mxGeometry relative="1" as="geometry">
            <mxPoint x="240" y="191.5" as="targetPoint" />
          </mxGeometry>
        </mxCell>
        <mxCell id="uF9bsFPUIGZTQUCOUkFB-5" style="edgeStyle=none;rounded=0;orthogonalLoop=1;jettySize=auto;html=1;entryX=1;entryY=0.25;entryDx=0;entryDy=0;endArrow=block;endFill=0;" parent="vT9nq1w8mzguo1wPkax1-1" source="V3ARkuVoZXKVavODABEY-23" target="uF9bsFPUIGZTQUCOUkFB-4" edge="1">
          <mxGeometry relative="1" as="geometry" />
        </mxCell>
        <mxCell id="uF9bsFPUIGZTQUCOUkFB-7" style="edgeStyle=none;rounded=0;orthogonalLoop=1;jettySize=auto;html=1;entryX=0;entryY=0.75;entryDx=0;entryDy=0;endArrow=open;endFill=0;" parent="vT9nq1w8mzguo1wPkax1-1" source="V3ARkuVoZXKVavODABEY-23" target="V3ARkuVoZXKVavODABEY-1" edge="1">
          <mxGeometry relative="1" as="geometry" />
        </mxCell>
        <mxCell id="V3ARkuVoZXKVavODABEY-23" value="&lt;p style=&quot;line-height: 100%&quot;&gt;&amp;lt;&amp;lt;actor&amp;gt;&amp;gt;&lt;br&gt;&lt;br&gt;&lt;b&gt;Developer&lt;/b&gt;&lt;/p&gt;" style="text;html=1;align=center;verticalAlign=middle;dashed=0;strokeColor=#000000;strokeWidth=2;" parent="vT9nq1w8mzguo1wPkax1-1" vertex="1">
          <mxGeometry x="240" y="163" width="80" height="60" as="geometry" />
        </mxCell>
        <mxCell id="uF9bsFPUIGZTQUCOUkFB-4" value="&lt;p style=&quot;line-height: 100%&quot;&gt;&amp;lt;&amp;lt;actor&amp;gt;&amp;gt;&lt;br&gt;&lt;br&gt;&lt;b&gt;UnAudited&lt;br&gt;User&lt;/b&gt;&lt;/p&gt;" style="text;html=1;align=center;verticalAlign=middle;dashed=0;strokeColor=#000000;strokeWidth=2;" parent="vT9nq1w8mzguo1wPkax1-1" vertex="1">
          <mxGeometry x="120" y="210" width="80" height="60" as="geometry" />
        </mxCell>
        <mxCell id="QkwuP3QNv7JNY2Z7TjTW-0" value="Title" parent="vT9nq1w8mzguo1wPkax1-0" visible="0" />
        <mxCell id="vT9nq1w8mzguo1wPkax1-14" value="&lt;font style=&quot;font-size: 12px ; font-weight: normal&quot;&gt;&lt;i&gt;&lt;span&gt;Diagram: Base System Logical Module -&amp;nbsp;&lt;/span&gt;&lt;span&gt;Functionality -&amp;nbsp;&lt;/span&gt;System Name, Version, Release,&lt;br&gt;&amp;nbsp;Build Date Information&lt;/i&gt;&lt;/font&gt;" style="text;strokeColor=none;fillColor=none;html=1;fontSize=10;fontStyle=1;verticalAlign=middle;align=left;shadow=0;glass=0;comic=0;opacity=30;fontColor=#808080;" parent="QkwuP3QNv7JNY2Z7TjTW-0" vertex="1">
          <mxGeometry x="120" y="450" width="520" height="40" as="geometry" />
        </mxCell>
        <mxCell id="QkwuP3QNv7JNY2Z7TjTW-1" value="Information" parent="vT9nq1w8mzguo1wPkax1-0" visible="0" />
        <UserObject label="" tooltip="ABOUT&#xa;&#xa;System Name, Release and Build dates help with tracking down errors reported by end users. &#xa;&#xa;&#xa;&#xa;It is good practice that the System Name and Version Numbers are hard-baked into Assemblies/libraries/dlls during the compilation phase. Embedding the compilation date is optional.&#xa;&#xa;&#xa;&#xa;Not only is the Release date not the same as the Build Date, but there are also times that a program changes sponsor, or there is a re-branding decision that requires the change of the system name, without touching the code.&#xa;&#xa;&#xa;&#xa;The system should allow for these variables to use a configurable value if supplied by the Deployment Pipeline.  " id="vT9nq1w8mzguo1wPkax1-15">
          <mxCell style="shape=image;html=1;verticalAlign=top;verticalLabelPosition=bottom;labelBackgroundColor=#ffffff;imageAspect=0;aspect=fixed;image=https://cdn1.iconfinder.com/data/icons/hawcons/32/699014-icon-28-information-128.png;shadow=0;dashed=0;fontFamily=Helvetica;fontSize=12;fontColor=#000000;align=center;strokeColor=#000000;fillColor=#505050;dashPattern=1 1;" parent="QkwuP3QNv7JNY2Z7TjTW-1" vertex="1">
            <mxGeometry x="660" y="470" width="20" height="20" as="geometry" />
          </mxCell>
        </UserObject>
        <mxCell id="QkwuP3QNv7JNY2Z7TjTW-2" value="Notes" parent="vT9nq1w8mzguo1wPkax1-0" />
        <mxCell id="vT9nq1w8mzguo1wPkax1-13" value="System Information includes Title, Description/Byline, copyright date.&lt;br&gt;&lt;br&gt;&lt;i&gt;Note: Some information can be overridden by Reseller information.&lt;/i&gt;" style="shape=note;whiteSpace=wrap;html=1;size=14;verticalAlign=top;align=left;spacingTop=-6;strokeWidth=1;fillColor=none;fontSize=12;" parent="QkwuP3QNv7JNY2Z7TjTW-2" vertex="1">
          <mxGeometry x="520" y="158.5" width="160" height="101.5" as="geometry" />
        </mxCell>
        <mxCell id="V3ARkuVoZXKVavODABEY-25" value="Can be hard-coded by developers&lt;br&gt;but that&#39;s not&amp;nbsp; best practice. Best to be configurable, updatable, therefore shareable, redeployable." style="shape=note;whiteSpace=wrap;html=1;size=14;verticalAlign=top;align=left;spacingTop=-6;strokeWidth=1;fillColor=none;fontSize=12;" parent="QkwuP3QNv7JNY2Z7TjTW-2" vertex="1">
          <mxGeometry x="520" y="320" width="160" height="103" as="geometry" />
        </mxCell>
      </root>
    </mxGraphModel>
  </diagram>
</mxfile>
